<?xml version="1.0" encoding="utf-8"?>
<!-- Generator: Adobe Illustrator 22.0.1, SVG Export Plug-In . SVG Version: 6.00 Build 0)  -->
<svg version="1.1" id="Layer_1" xmlns="http://www.w3.org/2000/svg" xmlns:xlink="http://www.w3.org/1999/xlink" x="0px" y="0px"
	 viewBox="0 0 1000 500" style="enable-background:new 0 0 1000 500;" xml:space="preserve">
<style type="text/css">
	.st0{fill:#B7B7B7;}
</style>
<g>
	<path class="st0" d="M636.8,406.5H348.1c-53.5,0-97-44.9-97-100c0-54.4,42.3-98.8,94.8-100c18.7-66.8,77.7-113,145.6-113
		c56.3,0,107,31.5,133.6,82.5c4.2-0.5,8-0.7,11.8-0.7c61.8,0,112.1,51.9,112.1,115.6C749,354.6,698.6,406.5,636.8,406.5z M348.1,222
		c-45.2,0-82,37.9-82,84.5s36.8,84.5,82,84.5h288.7c53.5,0,97.1-44.9,97.1-100.1c0-55.2-43.6-100.1-97.1-100.1
		c-4.5,0-9.2,0.4-14.9,1.3c-3.2,0.5-6.4-1.2-7.9-4.2c-23.3-48.6-70.2-78.8-122.6-78.8c-63,0-117.5,44.1-132.6,107.2
		c-0.8,3.5-4.1,5.9-7.5,5.9L348.1,222z"/>
	<path class="st0" d="M636.8,406.5c-4.2,0-7.5-3.5-7.5-7.8s3.4-7.8,7.5-7.8c53.5,0,97.1-44.9,97.1-100.1
		c0-55.2-43.6-100.1-97.1-100.1c-28,0-54.7,12.5-73.2,34.3c-2.7,3.2-7.5,3.6-10.6,0.7c-3.1-2.8-3.4-7.7-0.7-10.9
		c21.3-25.2,52.1-39.6,84.5-39.6c61.8,0,112.1,51.9,112.1,115.6C749,354.6,698.6,406.5,636.8,406.5z"/>
</g>
</svg>
