<?xml version="1.0" encoding="utf-8"?>
<!-- Generator: Adobe Illustrator 22.0.1, SVG Export Plug-In . SVG Version: 6.00 Build 0)  -->
<svg version="1.1" id="Layer_1" xmlns="http://www.w3.org/2000/svg" xmlns:xlink="http://www.w3.org/1999/xlink" x="0px" y="0px"
	 viewBox="0 0 1000 500" style="enable-background:new 0 0 1000 500;" xml:space="preserve">
<style type="text/css">
	.st0{fill:#B7B7B7;}
</style>
<g>
	<g>
		<g>
			<path class="st0" d="M680.6,247.8c-1.6-2-4-3.6-6.4-3.6h-74.8l-50.4-58c-1.2-1.2-2.8-2-4.4-2h-60c0-0.4,0-0.8-0.4-1.2l-22.4-42.4
				c-1.2-2-3.2-3.2-5.2-3.2h-30c-3.2,0-6,2.8-6,6v40.4h-24c-2,0-4,1.2-5.2,2.8l-34,57.2h-17.6c-3.2,0-6,2.4-6,6
				c0,1.2-0.4,24.4,9.2,45.2c-4.8-2-10.8-3.2-18-3.2c-3.2,0-6,2.8-6,6c0,3.2,2.8,6,6,6c13.2,0,19.6,4.8,27.2,10.8
				c8,6,16.8,13.2,34.4,13.2c0.8,0,1.6,0,2.4,0c1.2,0,2,0,3.2,0c0.8,0,1.6-0.4,2.4-0.8c12.4-1.6,19.6-7.6,26.4-12.4
				c7.2-5.6,13.6-10.8,27.2-10.8c13.2,0,19.6,4.8,27.2,10.8c8,6,16.8,13.2,34.4,13.2s26.4-7.2,34.4-13.2
				c7.2-5.6,13.6-10.8,27.2-10.8c13.2,0,19.6,4.8,27.2,10.8c8,6,16.8,13.2,34.4,13.2c3.2,0,6-2.8,6-6s-2.8-6-6-6
				c-4.4,0-8-0.4-11.2-1.6l57.6-60C681,252.6,681.4,249.8,680.6,247.8z M461.4,166.2l9.6,18.4h-38.4v-18.4H461.4z M432.2,149.8h20.4
				l2.4,4.4h-22.8L432.2,149.8L432.2,149.8z M400.2,196.2h141.6l18.8,21.6H387L400.2,196.2z M380.2,229.8H571l12.8,14.4H371.4
				L380.2,229.8z M609.8,309c-1.6-1.2-3.2-2.4-4.8-3.6c-8-6-16.8-13.2-34.4-13.2c-17.6,0-26.4,7.2-34.4,13.2
				c-7.2,5.6-13.6,10.8-27.2,10.8c-13.2,0-19.6-4.8-27.2-10.8c-8-6-16.8-13.2-34.4-13.2c-17.2,0-26.4,7.2-34.4,13.2
				c-6.8,5.2-12.8,10-24.4,10.4c-10.4-0.4-18.8-4.4-25.6-11.2c-13.6-14-16.8-37.6-17.6-48.4h314.4L609.8,309z"/>
		</g>
	</g>
	<g>
		<g>
			<path class="st0" d="M633,350.6c-13.2,0-19.6-4.8-27.2-10.8c-8-6-16.8-13.2-34.4-13.2c-17.6,0-26.4,7.2-34.4,13.2
				c-7.2,5.6-13.6,10.8-27.2,10.8c-13.2,0-19.6-4.8-27.2-10.8c-8-6-16.8-13.2-34.4-13.2c-17.2,0-26.4,7.2-34.4,13.2
				c-7.2,5.6-13.6,10.8-27.2,10.8c-13.2,0-19.6-4.8-27.2-10.8c-8-6-16.8-13.2-34.4-13.2c-3.2,0-6,2.8-6,6s2.8,6,6,6
				c13.2,0,19.6,4.8,27.2,10.8c8,6.4,17.2,13.2,34.4,13.2s26.4-7.2,34.4-13.2c7.2-5.6,13.6-10.8,27.2-10.8
				c13.2,0,19.6,4.8,27.2,10.8c8,6,16.8,13.2,34.4,13.2s26.4-7.2,34.4-13.2c7.2-5.6,13.6-10.8,27.2-10.8c13.2,0,19.6,4.8,27.2,10.8
				c8,6,16.8,13.2,34.4,13.2c3.2,0,6-2.8,6-6S636.2,350.6,633,350.6z"/>
		</g>
	</g>
</g>
</svg>
