<?xml version="1.0" encoding="utf-8"?>
<!-- Generator: Adobe Illustrator 22.0.1, SVG Export Plug-In . SVG Version: 6.00 Build 0)  -->
<svg version="1.1" id="Layer_1" xmlns="http://www.w3.org/2000/svg" xmlns:xlink="http://www.w3.org/1999/xlink" x="0px" y="0px"
	 viewBox="0 0 1000 500" style="enable-background:new 0 0 1000 500;" xml:space="preserve">
<style type="text/css">
	.st0{fill:#B7B7B7;}
</style>
<path class="st0" d="M425.2,363.1c3.3,1.1,5.1,4.8,3.9,8c-2.8,7.6-7.9,15.5-11.7,20.7c-2.2,3-2.4,6.9-0.5,10.2
	c1.8,3.1,5.4,4.9,9,4.5c34-3.9,51.3-25.2,57.1-34.2c1.2-1.8,3.1-2.9,5.3-2.9h35c64.9,0,117.8-52.8,117.8-117.8
	c0-19-4.6-37.8-13.4-54.5l2.4-2.4c3.6-3.6,4.4-8.8,2.6-13.2c0,0,13.1-13.1,13.1-13.1c11.6-11.6,11.6-30.9,0-42.5l-23.7-23.7
	c-11.5-11.5-30.9-11.6-42.5,0l-13.1,13.1c-1.5-0.6-3-0.9-4.6-0.9c-3.2,0-6.3,1.3-8.5,3.5l-9.7,9.7c-2,2-3.2,4.6-3.5,7.4
	c-5.5-0.8-11.2-1.2-16.8-1.2h-60.1c-27,0-53.4,9.4-74.3,26.4c-2,1.6-2.3,4.5-0.7,6.5c1.6,2,4.5,2.3,6.5,0.7
	c19.3-15.7,43.6-24.3,68.5-24.3h60.1c4.9,0,9.7,0.3,14.5,1c0,0-90.7,90.7-90.7,90.7c-0.6,0.6-1,1.3-1.2,2.1l-13.4,50
	c-2.2,8.1,0.2,16.7,6.1,22.7c5.9,5.9,14.6,8.2,22.7,6.1c0,0,50-13.4,50-13.4c0.8-0.2,1.5-0.6,2.1-1.2l26-26c1.8-1.8,1.8-4.7,0-6.5
	c-1.8-1.8-4.7-1.8-6.5,0l-19,19l-1.2-14.4c-0.2-2-1.7-3.7-3.7-4.1l-24.8-5l-5-24.8c-0.4-2-2.1-3.5-4.1-3.7l-14.4-1.2l86.3-86.3
	l53.2,53.2c0,0-54.3,54.3-54.3,54.3c-1.7,1.7-1.8,4.7,0,6.5c1.8,1.8,4.7,1.8,6.5,0l54.9-54.9c4.4,1.8,9.8,0.8,13.2-2.6l0.5-0.5
	c7.2,14.8,11,31.1,11,47.7c0,59.9-48.7,108.6-108.6,108.6h-35c-5.3,0-10.1,2.6-13,7c-5.1,7.9-20.3,26.7-50.5,30.1
	c0,0-0.1-0.1-0.1-0.1c0,0,0,0,0-0.1c4.1-5.7,9.7-14.3,12.9-22.9c2.9-8-1.5-17.1-9.6-19.9c-44-15-73.5-56.3-73.5-102.8
	c0-26.6,9.7-52.2,27.4-72c1.7-1.9,1.5-4.8-0.4-6.5c-1.9-1.7-4.8-1.5-6.5,0.4c-19.1,21.6-29.7,49.3-29.7,78.1
	C345.5,302,377.5,346.8,425.2,363.1z M586.1,108.7c8.1-8,21.5-8,29.5,0c0,0,23.7,23.7,23.7,23.7c8,8,8,21.5,0,29.5l-12.5,12.5
	l-53.2-53.2C573.6,121.1,586.1,108.7,586.1,108.7z M550.1,134.1c0,0,9.7-9.7,9.7-9.7c1.1-1.1,3-1.1,4.1,0l59.7,59.7
	c1.1,1.1,1.1,3,0,4.1l-9.7,9.7c-1.1,1.1-3,1.1-4.1,0c0,0-59.7-59.7-59.7-59.7C549,137.1,549,135.2,550.1,134.1z M458,306.8
	c-4.6,0.9-9.5-0.6-12.9-3.9c-3.6-3.6-5-8.9-3.7-13.8l3.2-12.1l26.3,26.3C471,303.4,458.3,306.8,458,306.8z M475.7,268.7
	c0.4,1.8,1.8,3.2,3.6,3.6l24.4,5l1.5,17l-24,6.4l-33.8-33.8l6.4-24l17,1.5L475.7,268.7z"/>
</svg>
