<?xml version="1.0" encoding="utf-8"?>
<!-- Generator: Adobe Illustrator 22.0.1, SVG Export Plug-In . SVG Version: 6.00 Build 0)  -->
<svg version="1.1" id="Layer_1" xmlns="http://www.w3.org/2000/svg" xmlns:xlink="http://www.w3.org/1999/xlink" x="0px" y="0px"
	 viewBox="0 0 1000 500" style="enable-background:new 0 0 1000 500;" xml:space="preserve">
<style type="text/css">
	.st0{fill:#B7B7B7;}
</style>
<g>
	<g>
		<path class="st0" d="M556.3,402.1H439.4c-48.6,0-91.3-44.3-91.3-94.8V196.9c0-55.5,43.5-99,99-99h61.6c43.4,0,91,48,91,91.8v8.1
			c0,6.2,5.4,10.4,13.3,10.4h12.8c26.1,0,26.1,21.3,26.1,28.3v69.9C651.9,358.3,608.1,402.1,556.3,402.1z M447.1,111
			c-48.2,0-85.9,37.7-85.9,85.9v110.4c0,42.7,37.3,81.6,78.2,81.6h116.9c44.7,0,82.5-37.8,82.5-82.5v-69.9c0-11.8-2.9-15.2-13-15.2
			H613c-17.4,0-26.5-11.9-26.5-23.6v-8.1c0-36.8-41.5-78.7-77.9-78.7C508.7,111,447.1,111,447.1,111z M552.1,326.7h-105
			c-13,0-23.5-10.5-23.5-23.5c0-13,10.5-23.5,23.5-23.5h105c13,0,23.5,10.5,23.5,23.5C575.6,316.1,565,326.7,552.1,326.7z
			 M447.1,292.8c-5.6,0-10.4,4.7-10.4,10.4c0,5.7,4.6,10.4,10.4,10.4h105c5.6,0,10.4-4.8,10.4-10.4c0-5.7-4.6-10.4-10.4-10.4H447.1z
			 M499.9,221.4h-52.8c-13,0-23.5-10.5-23.5-23.5c0-13,10.5-23.5,23.5-23.5h52.8c13,0,23.5,10.5,23.5,23.5
			C523.4,210.9,512.9,221.4,499.9,221.4z M447.1,187.6c-5.6,0-10.4,4.7-10.4,10.4c0,5.7,4.6,10.4,10.4,10.4h52.8
			c5.6,0,10.4-4.8,10.4-10.4c0-5.7-4.6-10.4-10.4-10.4H447.1z"/>
	</g>
</g>
</svg>
