<?xml version="1.0" encoding="utf-8"?>
<!-- Generator: Adobe Illustrator 22.0.1, SVG Export Plug-In . SVG Version: 6.00 Build 0)  -->
<svg version="1.1" id="Layer_1" xmlns="http://www.w3.org/2000/svg" xmlns:xlink="http://www.w3.org/1999/xlink" x="0px" y="0px"
	 viewBox="0 0 1000 500" style="enable-background:new 0 0 1000 500;" xml:space="preserve">
<style type="text/css">
	.st0{fill:#B7B7B7;}
</style>
<path class="st0" d="M500,94c-86.2,0-156,69.8-156,156s69.8,156,156,156s156-69.8,156-156C655.9,163.9,586.1,94.1,500,94z
	 M634.9,304.7l-44.4,7.7c5.1-18.6,7.8-37.8,8.2-57.1h46.8C644.9,272.2,641.3,288.9,634.9,304.7z M354.5,255.2h46.8
	c0.3,19.3,3.1,38.5,8.2,57.1l-44.4-7.7C358.7,288.9,355.1,272.2,354.5,255.2z M365.1,195.3l44.4-7.7c-5.1,18.6-7.8,37.8-8.2,57.1
	h-46.8C355.1,227.8,358.7,211.1,365.1,195.3z M505.2,177.5c18.7,0.2,37.3,1.9,55.7,5.1l18.4,3.2c5.6,19.2,8.7,39.1,9,59.1h-83.1
	V177.5z M562.7,172.3c-19-3.2-38.2-5-57.5-5.2v-62.4c29.8,2.9,55.7,30.2,70.4,69.9L562.7,172.3z M494.8,167.1
	c-19.3,0.2-38.5,2-57.5,5.2l-12.9,2.2c14.7-39.7,40.6-67,70.4-69.9V167.1z M439.1,182.6c18.4-3.2,37.1-4.9,55.7-5.1v67.3h-83.1
	c0.3-20,3.4-39.9,9-59.1L439.1,182.6z M411.7,255.2h83.1v67.3c-18.7-0.2-37.3-1.9-55.7-5.1l-18.4-3.2
	C415.1,295.1,412,275.2,411.7,255.2z M437.3,327.7c19,3.3,38.2,5,57.5,5.3v62.4c-29.8-2.9-55.7-30.2-70.4-69.9L437.3,327.7z
	 M505.2,332.9c19.3-0.3,38.5-2,57.5-5.3l12.9-2.2c-14.7,39.7-40.6,67-70.4,69.9V332.9z M560.9,317.4c-18.4,3.2-37.1,4.9-55.7,5.1
	v-67.3h83.1c-0.3,20-3.4,39.9-9,59.1L560.9,317.4z M598.7,244.8c-0.3-19.3-3.1-38.5-8.2-57.1l44.4,7.7c6.4,15.7,10,32.5,10.6,49.5
	H598.7z M629.7,183.9l-42.5-7.3c-7.6-24.9-21.9-47.3-41.4-64.7C582.1,123.9,612.2,149.8,629.7,183.9z M454.2,111.8
	c-19.4,17.4-33.7,39.8-41.4,64.7l-42.5,7.3C387.8,149.8,417.9,123.9,454.2,111.8z M370.3,316.1l42.5,7.3
	c7.6,24.9,21.9,47.3,41.4,64.7C417.9,376.1,387.8,350.2,370.3,316.1z M545.8,388.2c19.4-17.4,33.7-39.8,41.4-64.7l42.5-7.3
	C612.2,350.2,582.1,376.1,545.8,388.2z"/>
</svg>
