<?xml version="1.0" encoding="utf-8"?>
<!-- Generator: Adobe Illustrator 22.0.1, SVG Export Plug-In . SVG Version: 6.00 Build 0)  -->
<svg version="1.1" id="Layer_1" xmlns="http://www.w3.org/2000/svg" xmlns:xlink="http://www.w3.org/1999/xlink" x="0px" y="0px"
	 viewBox="0 0 1000 500" style="enable-background:new 0 0 1000 500;" xml:space="preserve">
<style type="text/css">
	.st0{fill:#B7B7B7;}
</style>
<g>
	<path class="st0" d="M662.2,98.5H337.8c-3,0-5.3,2.4-5.3,5.3v292.3c0,3,2.4,5.3,5.3,5.3h324.4c3,0,5.3-2.4,5.3-5.3v-57
		c0-3-2.4-5.3-5.3-5.3c-3,0-5.3,2.4-5.3,5.3v51.7H343.2V152h313.7v165.8c0,3,2.4,5.3,5.3,5.3c3,0,5.3-2.4,5.3-5.3V103.8
		C667.5,100.9,665.1,98.5,662.2,98.5z M343.2,109.2H541v32.1H343.2V109.2z M551.7,141.3v-32.1h105.2v32.1H551.7z"/>
	<path class="st0" d="M604.4,119.5c-3.1,0-5.7,2.6-5.7,5.7c0,3.1,2.6,5.7,5.7,5.7c3.1,0,5.7-2.6,5.7-5.7
		C610.1,122.1,607.6,119.5,604.4,119.5z"/>
	<path class="st0" d="M575.2,119.5c-3.1,0-5.7,2.6-5.7,5.7c0,3.1,2.6,5.7,5.7,5.7c3.1,0,5.7-2.6,5.7-5.7
		C580.9,122.1,578.4,119.5,575.2,119.5z"/>
	<path class="st0" d="M633.7,119.5c-3.1,0-5.7,2.6-5.7,5.7c0,3.1,2.6,5.7,5.7,5.7c3.1,0,5.7-2.6,5.7-5.7
		C639.4,122.1,636.8,119.5,633.7,119.5z"/>
	<path class="st0" d="M524.8,316.6c0,1.4,0.6,2.8,1.6,3.8l41.7,41.7c1,1,2.4,1.6,3.8,1.6c1.4,0,2.8-0.6,3.8-1.6l15.1-15.1
		c2.1-2.1,2.1-5.5,0-7.6L549,297.7c-2.1-2.1-5.5-2.1-7.6,0l-3.8,3.8l-7.7-7.7c23.4-27.3,22.2-68.5-3.6-94.4
		c-13.1-13.1-30.6-20.4-49.2-20.4s-36,7.2-49.2,20.4c-27.1,27.1-27.1,71.2,0,98.3c13.1,13.1,30.6,20.4,49.2,20.4
		c16.8,0,32.6-5.9,45.2-16.7l7.7,7.7l-3.8,3.8C525.3,313.9,524.8,315.2,524.8,316.6L524.8,316.6z M435.6,290.2
		c-22.9-22.9-22.9-60.2,0-83.2c11.1-11.1,25.9-17.2,41.6-17.2c15.7,0,30.5,6.1,41.6,17.2c22.9,22.9,22.9,60.2,0,83.2
		c-11.1,11.1-25.9,17.2-41.6,17.2C461.5,307.4,446.7,301.3,435.6,290.2z M579.4,343.2l-7.6,7.6l-34.2-34.2l3.8-3.8
		c0,0,3.8-3.8,3.8-3.8L579.4,343.2z"/>
	<path class="st0" d="M511.2,214.5c-9.1-9.1-21.2-14.1-34-14.1c-12.9,0-24.9,5-34,14.1c-18.8,18.8-18.8,49.3,0,68.1
		c9.1,9.1,21.2,14.1,34,14.1c12.9,0,24.9-5,34-14.1C530,263.8,530,233.3,511.2,214.5z M503.7,275c-7.1,7.1-16.5,11-26.5,11
		c-10,0-19.4-3.9-26.5-11c-14.6-14.6-14.6-38.3,0-52.9c7.1-7.1,16.5-11,26.5-11c10,0,19.4,3.9,26.5,11
		C518.2,236.7,518.2,260.4,503.7,275z"/>
</g>
</svg>
