<?xml version="1.0" encoding="utf-8"?>
<!-- Generator: Adobe Illustrator 22.0.1, SVG Export Plug-In . SVG Version: 6.00 Build 0)  -->
<svg version="1.1" id="Layer_1" xmlns="http://www.w3.org/2000/svg" xmlns:xlink="http://www.w3.org/1999/xlink" x="0px" y="0px"
	 viewBox="0 0 1000 500" style="enable-background:new 0 0 1000 500;" xml:space="preserve">
<style type="text/css">
	.st0{fill:#B7B7B7;}
</style>
<g>
	<g>
		<path class="st0" d="M610.3,406.5H389.7c-2.7,0-4.9-2.2-4.9-4.9V265.2c0-2.7,2.2-4.9,4.9-4.9c2.7,0,4.9,2.2,4.9,4.9v131.6h210.9
			V265.2c0-2.7,2.2-4.9,4.9-4.9s4.9,2.2,4.9,4.9v136.5C615.2,404.3,613,406.5,610.3,406.5z"/>
		<path class="st0" d="M610.1,270.3c-1.2,0-2.4-0.4-3.3-1.3L500,168.1L393.3,268.9c-2,1.9-5.1,1.8-6.9-0.2c-1.8-2-1.8-5,0.2-6.9
			l110.1-104c1.9-1.8,4.8-1.8,6.7,0l110.1,104c2,1.9,2,4.9,0.2,6.9C612.7,269.8,611.4,270.3,610.1,270.3z"/>
	</g>
	<path class="st0" d="M656,250.6c-1.2,0-2.4-0.4-3.4-1.3L500,105.1L347.3,249.3c-2,1.8-5.1,1.8-6.9-0.2c-1.8-2-1.8-5,0.2-6.9
		l156-147.3c1.9-1.8,4.8-1.8,6.7,0l156,147.3c2,1.9,2,4.9,0.2,6.9C658.6,250.1,657.3,250.6,656,250.6z"/>
	<path class="st0" d="M538.9,406.5h-77.8c-2.7,0-4.9-2.2-4.9-4.9V296c0-2.7,2.2-4.9,4.9-4.9h77.8c2.7,0,4.9,2.2,4.9,4.9v105.7
		C543.8,404.3,541.6,406.5,538.9,406.5z M466,396.7H534v-95.9H466V396.7z"/>
</g>
</svg>
