<?xml version="1.0" encoding="utf-8"?>
<!-- Generator: Adobe Illustrator 22.0.1, SVG Export Plug-In . SVG Version: 6.00 Build 0)  -->
<svg version="1.1" id="Layer_1" xmlns="http://www.w3.org/2000/svg" xmlns:xlink="http://www.w3.org/1999/xlink" x="0px" y="0px"
	 viewBox="0 0 1000 500" style="enable-background:new 0 0 1000 500;" xml:space="preserve">
<style type="text/css">
	.st0{fill:#B7B7B7;}
</style>
<g>
	<g>
		<path class="st0" d="M564,405.6H344.3c-40.7,0-73.8-33.1-73.8-73.8c0-40.1,32.2-72.9,72.1-73.8c14.2-49.3,59.1-83.3,110.8-83.3
			c42.8,0,81.4,23.2,101.6,60.9c3.2-0.4,6.1-0.5,8.9-0.5c47,0,85.3,38.3,85.3,85.3C649.3,367.3,611,405.6,564,405.6z M344.3,269.4
			c-34.4,0-62.4,28-62.4,62.3s28,62.3,62.4,62.3H564c40.7,0,73.9-33.1,73.9-73.9c0-40.7-33.1-73.8-73.9-73.8c-3.4,0-7,0.3-11.4,1
			c-2.5,0.4-4.9-0.9-6-3.1c-17.7-35.9-53.4-58.1-93.2-58.1c-47.9,0-89.4,32.5-100.9,79.1c-0.6,2.6-3,4.3-5.7,4.4L344.3,269.4z"/>
		<path class="st0" d="M564,405.6c-3.2,0-5.7-2.6-5.7-5.7s2.6-5.7,5.7-5.7c40.7,0,73.9-33.1,73.9-73.9c0-40.7-33.1-73.8-73.9-73.8
			c-21.3,0-41.6,9.2-55.7,25.3c-2.1,2.4-5.7,2.6-8.1,0.5c-2.4-2.1-2.6-5.7-0.5-8.1c16.2-18.6,39.6-29.2,64.3-29.2
			c47,0,85.3,38.3,85.3,85.3C649.3,367.3,611,405.6,564,405.6z"/>
	</g>
	<g>
		<path class="st0" d="M644.2,325.4c-3.2,0-5.7-2.6-5.7-5.7s2.6-5.7,5.7-5.7c40.7,0,73.9-33.1,73.9-73.9c0-40.7-33.1-73.8-73.9-73.8
			c-3.4,0-7,0.3-11.4,1c-2.5,0.4-4.9-0.9-6-3.1c-17.7-35.9-53.4-58.1-93.2-58.1c-47.9,0-89.4,32.5-100.9,79.1
			c-0.6,2.6-3,4.3-5.7,4.4l-1.5-0.1c-3.2,0-6.3-2.6-6.3-5.8c0-2.5,1.3-4.7,3.4-5.5c14.1-49.5,59.1-83.6,110.9-83.6
			c42.8,0,81.4,23.2,101.6,60.9c3.2-0.4,6.1-0.5,8.9-0.5c47,0,85.3,38.3,85.3,85.3C729.5,287.1,691.2,325.4,644.2,325.4z"/>
		<path class="st0" d="M644.2,325.4c-3.2,0-5.7-2.6-5.7-5.7s2.6-5.7,5.7-5.7c40.7,0,73.9-33.1,73.9-73.9c0-40.7-33.1-73.8-73.9-73.8
			c-21.3,0-41.6,9.2-55.7,25.3c-2.1,2.4-5.7,2.6-8.1,0.5c-2.4-2.1-2.6-5.7-0.5-8.1c16.2-18.6,39.6-29.2,64.3-29.2
			c47,0,85.3,38.3,85.3,85.3C729.5,287.1,691.2,325.4,644.2,325.4z"/>
	</g>
</g>
</svg>
