<?xml version="1.0" encoding="utf-8"?>
<!-- Generator: Adobe Illustrator 22.0.1, SVG Export Plug-In . SVG Version: 6.00 Build 0)  -->
<svg version="1.1" id="Layer_1" xmlns="http://www.w3.org/2000/svg" xmlns:xlink="http://www.w3.org/1999/xlink" x="0px" y="0px"
	 viewBox="0 0 1000 500" style="enable-background:new 0 0 1000 500;" xml:space="preserve">
<style type="text/css">
	.st0{fill:#B7B7B7;}
</style>
<g>
	<path class="st0" d="M450.1,230.9c-1.6-2.6-5-3.5-7.6-1.9L378,267.4c-1.7,1-2.7,2.8-2.7,4.8c0,1.9,1,3.8,2.7,4.8l64.4,38.4
		c0.9,0.5,1.9,0.8,2.8,0.8c1.9,0,3.7-1,4.8-2.7c1.6-2.6,0.7-6-1.9-7.6l-56.5-33.6l56.5-33.6C450.8,236.9,451.6,233.5,450.1,230.9
		L450.1,230.9z"/>
	<path class="st0" d="M549.9,313.3c1,1.7,2.9,2.7,4.8,2.7c1,0,1.9-0.3,2.8-0.8l64.4-38.4c1.7-1,2.7-2.8,2.7-4.8c0-1.9-1-3.8-2.7-4.8
		L557.5,229c-2.6-1.6-6-0.7-7.6,1.9c-1.6,2.6-0.7,6,1.9,7.6l56.5,33.6l-56.5,33.6C549.2,307.3,548.4,310.7,549.9,313.3z"/>
	<path class="st0" d="M521.2,230.7l-51.6,76.8c-1.7,2.5-1,6,1.5,7.7c0.9,0.6,2,0.9,3.1,0.9c1.8,0,3.5-0.9,4.6-2.4l51.6-76.8
		c1.7-2.5,1-6-1.5-7.7C526.3,227.4,522.9,228.1,521.2,230.7L521.2,230.7z"/>
	<path class="st0" d="M667.8,93.3H332.2c-3.1,0-5.5,2.5-5.5,5.5v302.4c0,3.1,2.5,5.5,5.5,5.5h335.6c3.1,0,5.5-2.5,5.5-5.5v-59
		c0-3.1-2.5-5.5-5.5-5.5s-5.5,2.5-5.5,5.5v53.5H337.7V148.6h324.6v171.5c0,3.1,2.5,5.5,5.5,5.5s5.5-2.5,5.5-5.5V98.8
		C673.3,95.7,670.9,93.3,667.8,93.3z M337.7,104.3h204.7v33.2H337.7V104.3z M553.5,137.5v-33.2h108.8v33.2H553.5z"/>
	<path class="st0" d="M608.1,115c-3.3,0-5.9,2.6-5.9,5.9c0,3.3,2.6,5.9,5.9,5.9s5.9-2.6,5.9-5.9S611.3,115,608.1,115z"/>
	<path class="st0" d="M577.8,115c-3.3,0-5.9,2.6-5.9,5.9c0,3.3,2.6,5.9,5.9,5.9s5.9-2.6,5.9-5.9S581.1,115,577.8,115z"/>
	<path class="st0" d="M638.3,115c-3.3,0-5.9,2.6-5.9,5.9c0,3.3,2.6,5.9,5.9,5.9s5.9-2.6,5.9-5.9S641.6,115,638.3,115z"/>
</g>
</svg>
