<?xml version="1.0" encoding="utf-8"?>
<!-- Generator: Adobe Illustrator 22.0.1, SVG Export Plug-In . SVG Version: 6.00 Build 0)  -->
<svg version="1.1" id="Layer_1" xmlns="http://www.w3.org/2000/svg" xmlns:xlink="http://www.w3.org/1999/xlink" x="0px" y="0px"
	 viewBox="0 0 1000 500" style="enable-background:new 0 0 1000 500;" xml:space="preserve">
<style type="text/css">
	.st0{fill:#B7B7B7;}
</style>
<g>
	<g>
		<g>
			<path class="st0" d="M500,279.4c-0.6,0-1.2-0.1-1.8-0.4l-125.8-62.9c-1.3-0.7-2.2-2-2.2-3.6c0-1.5,0.8-2.9,2.2-3.6l100.3-50.2
				c2-1,4.3-0.2,5.3,1.8c1,2,0.2,4.3-1.8,5.3L383,212.5L500,271l117-58.5l-92-46c-2-1-2.8-3.4-1.8-5.3c1-2,3.4-2.7,5.3-1.8
				l99.1,49.5c1.3,0.7,2.2,2,2.2,3.6s-0.8,2.9-2.2,3.6L501.8,279C501.2,279.3,500.6,279.4,500,279.4z"/>
			<path class="st0" d="M500,406.5c-0.6,0-1.2-0.1-1.8-0.4l-125.8-62.9c-2-1-2.8-3.4-1.8-5.3c1-2,3.4-2.7,5.3-1.8l124.1,62l124.1-62
				c2-1,4.3-0.2,5.3,1.8c1,2,0.2,4.3-1.8,5.3l-125.8,62.9C501.2,406.4,500.6,406.5,500,406.5z"/>
			<path class="st0" d="M625.8,343.6c-2.2,0-4-1.8-4-4V212.5c0-2.2,1.8-4,4-4c2.2,0,4,1.8,4,4v127.1
				C629.8,341.8,628,343.6,625.8,343.6z"/>
			<path class="st0" d="M500,406.5c-2.2,0-4-1.8-4-4V275.5c0-2.2,1.8-4,4-4c2.2,0,4,1.8,4,4v127.1C504,404.7,502.2,406.5,500,406.5z
				"/>
			<path class="st0" d="M374.2,343.6c-2.2,0-4-1.8-4-4V212.5c0-2.2,1.8-4,4-4c2.2,0,4,1.8,4,4v127.1
				C378.1,341.8,376.4,343.6,374.2,343.6z"/>
		</g>
	</g>
	<g>
		<path class="st0" d="M500,198.6c-2.2,0-4-1.8-4-4V97.5c0-2.2,1.8-4,4-4c2.2,0,4,1.8,4,4v97.2C504,196.9,502.2,198.6,500,198.6z"/>
		<path class="st0" d="M538.5,140c-1,0-2-0.4-2.8-1.2L500,103.1l-35.7,35.7c-1.5,1.5-4.1,1.5-5.6,0s-1.5-4.1,0-5.6l38.5-38.5
			c0.7-0.7,1.8-1.2,2.8-1.2l0,0c1.1,0,2.1,0.4,2.8,1.2l38.5,38.5c1.5,1.5,1.5,4.1,0,5.6C540.5,139.6,539.5,140,538.5,140z"/>
	</g>
</g>
</svg>
