<?xml version="1.0" encoding="utf-8"?>
<!-- Generator: Adobe Illustrator 22.0.1, SVG Export Plug-In . SVG Version: 6.00 Build 0)  -->
<svg version="1.1" id="Layer_1" xmlns="http://www.w3.org/2000/svg" xmlns:xlink="http://www.w3.org/1999/xlink" x="0px" y="0px"
	 viewBox="0 0 1000 500" style="enable-background:new 0 0 1000 500;" xml:space="preserve">
<style type="text/css">
	.st0{fill:#B7B7B7;}
</style>
<path class="st0" d="M725.2,234.5h-16.9c-7.4-44-45.4-77.7-91.2-77.7c-45.2,0-83.1,32-91.8,74.4c-7.5-6.3-16.1-9.7-25.2-9.7
	c-9.1,0-17.7,3.4-25.2,9.7c-8.7-42.4-46.1-74.4-90.7-74.4c-49.1,0-89.4,37.7-93.4,85.4h-15.9c-4.3,0-7.8,3.5-7.8,7.8
	s3.5,7.8,7.8,7.8h15.9c4,47.8,44.3,85.4,93.4,85.4c50.2,0,91.1-40.4,92.5-90.6c6.6-10,14.9-15.5,23.4-15.5c8.6,0,16.8,5.5,23.4,15.5
	c1.4,50.2,42.8,90.6,93.6,90.6c51.1,0,92.6-41.8,92.6-93.2h15.5c4.3,0,7.8-3.5,7.8-7.8S729.5,234.5,725.2,234.5z M384.1,327.7
	c-43.1,0-78.2-34.8-78.2-77.7s35.1-77.7,78.2-77.7c43.2,0,77.1,34.1,77.1,77.7S427.3,327.7,384.1,327.7z M617.1,327.7
	c-43.1,0-78.2-34.8-78.2-77.7s35.1-77.7,78.2-77.7c43.2,0,77.1,34.1,77.1,77.7S660.3,327.7,617.1,327.7z"/>
</svg>
