<?xml version="1.0" encoding="utf-8"?>
<!-- Generator: Adobe Illustrator 22.0.1, SVG Export Plug-In . SVG Version: 6.00 Build 0)  -->
<svg version="1.1" id="Layer_1" xmlns="http://www.w3.org/2000/svg" xmlns:xlink="http://www.w3.org/1999/xlink" x="0px" y="0px"
	 viewBox="0 0 1000 500" style="enable-background:new 0 0 1000 500;" xml:space="preserve">
<style type="text/css">
	.st0{fill:#B7B7B7;}
</style>
<g>
	<path class="st0" d="M651.9,275.3h-25.3v-86.1c0-2.8-2.3-5.1-5.1-5.1h-55.7V98.1c0-2.8-2.3-5.1-5.1-5.1H439.2
		c-2.8,0-5.1,2.3-5.1,5.1v86.1h-55.7c-2.8,0-5.1,2.3-5.1,5.1v86.1h-25.3c-2.8,0-5.1,2.3-5.1,5.1v30.4c0,2.8,2.3,5.1,5.1,5.1h5.1V407
		h10.1v-91.2h273.5V407h10.1v-91.2h5.1c2.8,0,5.1-2.3,5.1-5.1v-30.4C657,277.6,654.7,275.3,651.9,275.3z M616.5,275.3H505.1v-81
		h40.5v45.6c0,2.8,2.3,5.1,5.1,5.1h20.3c2.8,0,5.1-2.3,5.1-5.1v-45.6h40.5V275.3z M565.8,194.3v40.5h-10.1v-40.5h5.1H565.8z
		 M494.9,103.1h10.1v40.5h-10.1V103.1z M444.3,103.1h40.5v45.6c0,2.8,2.3,5.1,5.1,5.1h20.3c2.8,0,5.1-2.3,5.1-5.1v-45.6h40.5v81H500
		h-55.7V103.1z M434.2,194.3h5.1h5.1v40.5h-10.1V194.3z M383.5,194.3H424v45.6c0,2.8,2.3,5.1,5.1,5.1h20.3c2.8,0,5.1-2.3,5.1-5.1
		v-45.6h40.5v81H383.5V194.3z M646.9,305.7H353.1v-20.3h25.3H500h121.5h25.3V305.7z"/>
	<path class="st0" d="M621.5,326H378.5c-2.8,0-5.1,2.3-5.1,5.1v40.5c0,2.8,2.3,5.1,5.1,5.1h243.1c2.8,0,5.1-2.3,5.1-5.1V331
		C626.6,328.2,624.3,326,621.5,326z M616.5,366.5h-233v-30.4h233V366.5z"/>
	<rect x="479.7" y="346.2" class="st0" width="40.5" height="10.1"/>
</g>
</svg>
