<?xml version="1.0" encoding="utf-8"?>
<!-- Generator: Adobe Illustrator 22.0.1, SVG Export Plug-In . SVG Version: 6.00 Build 0)  -->
<svg version="1.1" id="Layer_1" xmlns="http://www.w3.org/2000/svg" xmlns:xlink="http://www.w3.org/1999/xlink" x="0px" y="0px"
	 viewBox="0 0 1000 1000" style="enable-background:new 0 0 1000 1000;" xml:space="preserve">
<style type="text/css">
	.st0{fill:#B7B7B7;}
</style>
<g>
	<path class="st0" d="M641.5,471.8l-0.7-1.6v-48.8l0.6-1.5c6.4-15.3,20.9-56.6,18.6-111c-1.6-37.2,19.6-109.4,20.5-112.4l1.7-5.7
		l-76.7-17.6l-1.3,5.4c-0.2,0.7-17.4,69.2-88.9,81.9l-3.7,0.6l-0.8,3.6c-4.1,18.3-8,33.4-11.6,44.7l-8,25.4l-8-25.4
		c-3.6-11.3-7.4-26.4-11.6-44.7l-0.8-3.6l-3.7-0.6c-70.8-12.5-88.1-79-88.9-81.8l-1.3-5.4l-76.7,17.6l1.7,5.7
		c0.2,0.7,22.1,74.7,20.5,112.4c-2.3,54.3,12.2,95.7,18.6,111l0.6,1.5V470l-0.7,1.6L207.8,772.1l3.2,2.7c0.6,0.5,16,13.4,58.4,26.3
		c38.9,11.8,108.9,25.9,221.8,25.9s182.9-14.1,221.8-25.9c42.5-12.9,57.8-25.7,58.5-26.3l3.2-2.7L641.5,471.8z M333.7,309.4
		c1.3-30.1-11.5-81.4-17-102l-2.2-8.4l8.5-2l39.1-9l7-1.6l2.7,6.7c2.7,6.8,7.5,17.1,15,27.9c17.2,24.6,41.5,41.4,70.1,48.6l5,1.2
		l1.2,5c3.7,16,7.3,29.2,10.6,39.3c5.2,16.1,10.3,26.8,17.9,26.8s12.7-10.7,17.9-26.8c3.3-10.1,6.8-23.3,10.6-39.3l1.2-5l5-1.2
		c28.6-7.1,52.9-23.9,70.1-48.6c7.5-10.8,12.3-21.1,15-27.9l2.7-6.7l7,1.6l39.1,9l8.5,2l-2.2,8.4c-5.6,20.6-18.3,71.9-17,102
		c2.1,49.4-10.9,88.6-16.6,103.1l-2.1,5.3H352.3l-2.1-5.3C343.1,394.6,331.6,357.4,333.7,309.4z M629.6,429v36.5H352.9V429H629.6z
		 M754.2,772.6c-8.7,4.8-24.2,12-48.3,19c-68.4,20-154.5,24.2-214.7,24.2s-146.3-4.2-214.7-24.2c-24.2-7.1-39.6-14.3-48.3-19
		l-6.7-3.7l3.1-7l124.2-280.2l2.2-5h67.6l-2.3,10.2l-25.6,113.4l10.9,2.5l26.9-119.6l1.5-6.5h121.1l1.5,6.5l26.9,119.6l10.9-2.5
		l-25.5-113.4l-2.3-10.2h68.8l2.2,5l124.3,280.2l3.1,7L754.2,772.6z"/>
</g>
</svg>
