<?xml version="1.0" encoding="utf-8"?>
<!-- Generator: Adobe Illustrator 22.0.1, SVG Export Plug-In . SVG Version: 6.00 Build 0)  -->
<svg version="1.1" id="Layer_1" xmlns="http://www.w3.org/2000/svg" xmlns:xlink="http://www.w3.org/1999/xlink" x="0px" y="0px"
	 viewBox="0 0 1000 1000" style="enable-background:new 0 0 1000 1000;" xml:space="preserve">
<style type="text/css">
	.st0{fill:#B7B7B7;}
</style>
<g>
	<g>
		<path class="st0" d="M677.9,778.2l-4.3-0.2l-1-4.2c-3.5-15.3-14.3-29.9-26.9-36.3L593,710.8c-40.7-20.6-72.7-77.5-69.9-124.2
			c5.8-95.1,25.1-376,27.3-407.7l0-0.5c0.1-1.4-0.4-2.7-1.3-3.8c-0.9-1-2.3-1.6-3.7-1.6H322.9c-1.4,0-2.7,0.6-3.6,1.6
			c-0.9,1-1.4,2.4-1.3,3.7L342,585l0.1,2l-1.2,1.7c-15,20.9-23,45.6-23,71.5c0,2.4,0.4,9.7,2.1,31l0,0.2v0.1
			c3.9,48.3,11.9,133.2,12.2,136.8c0.2,2.6,2.4,4.5,5,4.5h27.4c2.8,0,5-2.2,5-5V713.7l9.3,7.3c2.1,1.6,4,3.3,5.6,4.9
			c18.1,17.7,75.3,73.4,92.4,90l0.8,0.8c0.9,0.9,2.2,1.4,3.5,1.4l196.5-0.1c2.8,0,5-2.2,5-5v-29.9
			C682.7,780.5,680.6,778.3,677.9,778.2z M328.3,651.1c1.6-19.7,8.4-38.7,19.7-55l1.7-2.5h95.7c2.8,0,5-2.2,5-5v-42.9
			c0-2.8-2.2-5-5-5h-57.8c-2.8,0-5,2.2-5,5c0,2.8,2.2,5,5,5h52.8v32.9h-88.5l-0.3-5.4l-3.8-64.3l-0.4-6.1h97.9c2.8,0,5-2.2,5-5
			v-42.9c0-2.8-2.2-5-5-5h-62.9c-2.8,0-5,2.2-5,5s2.2,5,5,5h57.9v32.9h-93.5l-0.3-5.4l-15.4-260.6l-0.4-6.1h126c2.8,0,5-2.2,5-5
			c0-2.8-2.2-5-5-5H330.1l-0.3-5.4l-1.3-21.4l-0.4-6.1h211.9l-0.4,6.1l-0.5,6.9l-1,14.5l-0.4,5.3h-38.2c-2.8,0-5,2.2-5,5
			c0,2.8,2.2,5,5,5h37.5l-0.4,6.1c-5.6,81.2-19,278.3-23.6,354c-1.5,24.7,5.6,52.2,19.9,77.6c14.3,25.3,34,45.3,55.5,56.2l52.7,26.7
			c8.3,4.2,16.1,13.6,20.1,24l2.9,7.7h-170l-1.7-1.6c-6.3-6.1-62-60.4-81.7-79.6c-17.8-17.4-48.5-33.1-78.1-39.8l-4.8-1.1
			L328.3,651.1z M359.6,823h-17.8l-0.5-5.2c-1.5-15.7-6.5-70-10.1-111.8l-0.7-8.7l8.3,2.8c6,2,11.9,4.5,17.6,7.2l3.2,1.6V823z
			 M672.7,808.1H667l-181.5,0.1h-2.3l-1.7-1.6c-46.9-45.7-78-76-90-87.8c-6-5.8-14.3-11.7-24-17l-0.1-0.1l-0.1-0.1
			c-0.2-0.1-0.4-0.2-0.5-0.3l-0.2-0.1l-0.2-0.1c-10.3-5.5-21.7-10-32.8-13.1l-3.8-1.1l-0.3-4c-0.3-3.2-0.5-6.2-0.7-8.9l-0.6-8
			l7.7,2.1c26.4,7,52.4,20.8,67.9,35.9c21,20.5,84.3,82.1,84.8,82.7c0.9,0.9,2.2,1.4,3.5,1.4h180.6V808.1z"/>
	</g>
</g>
</svg>
