<?xml version="1.0" encoding="utf-8"?>
<!-- Generator: Adobe Illustrator 22.0.1, SVG Export Plug-In . SVG Version: 6.00 Build 0)  -->
<svg version="1.1" id="Layer_1" xmlns="http://www.w3.org/2000/svg" xmlns:xlink="http://www.w3.org/1999/xlink" x="0px" y="0px"
	 viewBox="0 0 1000 1000" style="enable-background:new 0 0 1000 1000;" xml:space="preserve">
<style type="text/css">
	.st0{fill:#B7B7B7;}
</style>
<g>
	<path class="st0" d="M715.1,256.1c-0.3-1.9-0.4-2.7-0.5-3.1c-4.7-42.4-57.9-63.3-58.4-63.5c-15.3-6-45.4-14.2-52-16l-1.3-0.3
		c-0.4-0.1-0.9-0.2-1.3-0.2c-1.2,0-2.3,0.4-3.2,1.2c-0.3,0.3-32.1,26.1-98.2,26.1c-65.9,0-96.9-25-98.2-26.1c-1.2-1-2.4-1.2-3.3-1.2
		c-0.4,0-0.9,0.1-1.3,0.2l-1.5,0.4h0c-7,1.9-36.7,10-51.7,15.9l-0.1,0l-0.1,0c-0.5,0.2-52.5,18.8-58.4,63.5c0,0.3-0.1,1-0.3,2.1
		c-6.6,41.7-28.9,202.4-35.7,520c0,1.3,0.5,2.7,1.4,3.6c0.9,1,2.2,1.5,3.6,1.5h73.3v26.4c0,2.1,1.3,4,3.3,4.7
		c1.7,0.6,43.7,15.6,169,15.6c125.2,0,167.2-14.9,168.9-15.6c2-0.7,3.3-2.6,3.3-4.7v-26.4h73.3c1.3,0,2.7-0.6,3.6-1.5
		c0.9-1,1.5-2.3,1.4-3.6C744.1,470.6,723.6,310.7,715.1,256.1z M412.5,192.3c16.7,8.2,45.5,18,87.6,18c42.1,0,70.9-9.8,87.6-18
		l8.6-4.2l-4.1,8.7c-12.5,26.5-49.6,44.3-92.1,44.3c-42.6,0-79.6-17.8-92.1-44.3l-4.1-8.7L412.5,192.3z M327.5,327.4l-2.1,15.9
		l-4.5-15.4l-3.4-11.8c-0.6-2.1-2.6-3.6-4.8-3.6c-0.5,0-0.9,0.1-1.4,0.2c-1.3,0.4-2.3,1.2-3,2.4c-0.7,1.2-0.8,2.5-0.4,3.8l17.2,59.6
		l0.1,0.4v0.5l2.7,222.4v168.4h-68.1v-3.4c8.1-358.9,35.5-511.4,35.7-512.4c9.2-39.7,49.8-54.7,52.3-55.6
		c11.2-4.4,31.4-10.3,42.5-13.4l3.5-1l0.7,3.6c1,5.3,3,10.6,5.7,15.6l1.9,3.5l-3.8,1.2C348.1,225.1,332.4,290.1,327.5,327.4z
		 M662.3,601.9v201.9h-2.9c-16,4-62.7,13.2-159.2,13.2c-97.4,0-144.1-9.3-159.7-13.3l-2.5-0.6V601.8c0-0.5-2.9-241-2.9-241
		c0-1.3,1-127.3,72-144.3l1.9-0.5l1.3,1.4c4.4,4.7,9.5,9,15.3,12.9c20,13.4,46.5,20.8,74.6,20.8c28.1,0,54.6-7.4,74.6-20.8
		c5.8-3.9,10.9-8.2,15.3-12.9l1.3-1.4l1.9,0.5c29.3,7,51,34.2,62.8,78.6c8.9,33.6,9.1,65.3,9.1,65.6
		C665.2,360.7,662.3,601.4,662.3,601.9z M672.4,770.2V601.9l2.7-222.5V379l0.1-0.4l17.2-59.6c0.4-1.3,0.2-2.7-0.4-3.8
		c-0.7-1.2-1.7-2-3-2.4c-0.5-0.1-0.9-0.2-1.4-0.2c-2.2,0-4.2,1.5-4.8,3.6l-3.4,11.8l-4.5,15.4l-2.1-15.9
		c-4.9-37.3-20.6-102.4-70.9-118.9l-3.8-1.3l1.9-3.5c2.7-5.1,4.7-10.3,5.7-15.6l0.7-3.6l3.5,1c11.1,3.1,31.4,9,42.6,13.4
		c1.9,0.8,46.5,18.7,52.3,55.9c1.1,6.3,27.8,160.6,35.7,512l0.1,3.4H672.4z"/>
</g>
</svg>
