<?xml version="1.0" encoding="utf-8"?>
<!-- Generator: Adobe Illustrator 22.0.1, SVG Export Plug-In . SVG Version: 6.00 Build 0)  -->
<svg version="1.1" id="Layer_1" xmlns="http://www.w3.org/2000/svg" xmlns:xlink="http://www.w3.org/1999/xlink" x="0px" y="0px"
	 viewBox="0 0 1000 1000" style="enable-background:new 0 0 1000 1000;" xml:space="preserve">
<style type="text/css">
	.st0{fill:#B7B7B7;}
</style>
<path class="st0" d="M658.6,311.6v-12.1h-0.6l-5.7-109.2c-0.1-2.4-2.1-4.3-4.5-4.3H342.6c-2.4,0-4.4,1.9-4.5,4.3l-5.7,109.2h-0.7
	v12.3l-26.3,499.5c-0.1,2.4,1.6,4.5,4,4.7L418.4,827c0.1,0,0.3,0,0.4,0c2.3,0,4.2-1.6,4.6-3.8l65.5-402.5l6.3-38.7l6.3,38.7
	L567,823.2c0.4,2.1,2.3,3.8,4.4,3.8c0.1,0,0.3,0,0.5,0l108.9-10.9c2.4-0.2,4.2-2.3,4-4.8L658.6,311.6z M648.9,298.6l0.2,3.8l0.2,3.5
	h-0.5l-1.4-0.8c-0.5-0.2-0.9-0.5-1.4-0.8c-1.1-0.6-2.2-1.3-3.3-1.9c-21.1-12.9-36.3-33.4-42.5-57.4h3.3h3.3h32.9h3.2h3.2
	L648.9,298.6z M490.6,344c-0.9,0.4-1.7,0.9-2.5,1.6l-8.2-7.6c-15.1-14-23.8-33.9-23.8-54.6V245h3.2h3.2h21.8h3.2h3.2V344z
	 M456.1,226.4v-3.2v-21.8v-3.2h3.2h3.2h21.8h3.2h3.2v3.2v21.8v3.2v3.2h-3.2h-3.2h-21.8h-3.2h-3.2V226.4z M643.7,201.1l1.2,22.1h-3.2
	h-3.2l0.2,3.2l0.2,3.2H506h-3.2h-3.2v-3.2v-3.2v-21.8v-3.2h3.2V195h3.2h137.4L643.7,201.1z M346.6,201.1l0.3-6h93.8h3.2v3.2h3.2v3.2
	v21.8v3.2v3.2h-3.2h-3.2h-89.2l0.2-3.2h-3.2l0.2-3.2h-3.2L346.6,201.1z M344.2,245h3.2h3.2h32.9h3.3h3.3
	c-6.2,24-21.4,44.5-42.5,57.4c-1.1,0.7-2.2,1.3-3.3,1.9c-0.5,0.3-0.9,0.5-1.4,0.8l-1.4,0.8H341l0.2-3.4v0l0.2-3.7L344.2,245z
	 M416.1,811.7l-1,5.9l-6-0.6l-88.4-8.8l-6.1-0.6l0.3-6.1l25.3-480.2l0.2-3.2l0.2-3.2h2c0.4,0,0.8-0.1,1.2-0.2
	c0.3-0.1,0.6-0.2,0.9-0.3c0.8-0.4,1.6-0.8,2.4-1.3c26.6-14.2,45.5-38.8,52.4-68.2h3.3h3.3h34.7h3.2h3.2v38.5
	c0,28.3,14,54.1,37.2,69.4l-0.6,3.5l-0.6,3.4c1,0.6,2,1.2,3,1.7c1,0.6,2,1.1,3,1.6L416.1,811.7z M669.6,808.1l-88.4,8.8l-6,0.6
	l-1-5.9l-73-448.6c1.1-0.7,2-1.6,2.8-2.7c1.3-1.8,2.1-4,2.1-6.4v-0.9l-0.1-0.9c-0.4-2.3-1.5-4.4-3.1-6c-0.9-0.9-2-1.7-3.2-2.2v-99
	h3.2h3.2h78.3h3.3h3.3c6.9,29.3,25.8,53.9,52.4,68.1c0.8,0.4,1.6,0.9,2.4,1.3c0.3,0.1,0.5,0.2,0.8,0.3c0.4,0.1,0.8,0.2,1.2,0.2h2
	l0.2,3.2l0.2,3.2l25.3,480.2l0.3,6.1L669.6,808.1z"/>
</svg>
