<?xml version="1.0" encoding="utf-8"?>
<!-- Generator: Adobe Illustrator 22.0.1, SVG Export Plug-In . SVG Version: 6.00 Build 0)  -->
<svg version="1.1" id="Layer_1" xmlns="http://www.w3.org/2000/svg" xmlns:xlink="http://www.w3.org/1999/xlink" x="0px" y="0px"
	 viewBox="0 0 1000 1000" style="enable-background:new 0 0 1000 1000;" xml:space="preserve">
<style type="text/css">
	.st0{fill:#B7B7B7;}
</style>
<g>
	<path class="st0" d="M677.1,767c-2.5-82.5-18.2-162.6-46.5-237.9c-22.3-59.3-45.6-96.6-52.2-106.6l-1.1-1.7v-41l2.5-2.1
		c19.7-16.7,31-41.1,30.9-66.9c-0.2-10.4-4.4-20.2-11.8-27.6l-3.1-3.1l1.5-4.2l35.4-97.3c0.5-1.3,0.3-2.7-0.5-3.8
		c-0.8-1.1-2.1-1.8-3.4-1.8h-44.5c-1.8,0-3.3,1.1-3.9,2.7l-29.9,82.1l-1.6,4.5l-4.8,0c-16.7,0.1-32.6,7.5-43.5,20.1l-5.3,6.1
		l-5.3-6.1c-10.9-12.7-26.8-20-43.5-20.1l-4.8,0l-1.7-4.5L410,175.7c-0.6-1.6-2.2-2.7-3.9-2.7h-44.5c-1.4,0-2.6,0.7-3.4,1.8
		c-0.8,1.1-1,2.5-0.5,3.8l35.4,97.3l1.5,4.2l-3.1,3.1c-7.4,7.4-11.5,17.2-11.8,27.6c0,25.8,11.3,50.1,30.9,66.8l2.5,2.1v41.1
		l-1.2,1.7c-6.6,10-29.8,47.3-52.2,106.7c-28.3,75.4-44,155.5-46.5,238.3c-1,32.3,1.4,49.7,7.8,56.3l0,0l0,0
		c1.8,1.9,4.4,3.1,7.1,3.1h333.9c2.6,0,5.2-1.1,7.1-3.1l0,0l0,0C675.7,817.2,678.1,799.7,677.1,767z M560.2,255.6l25.3-69.7l1.7-4.6
		h35.6l-3.4,9.3l-27.7,76.1l-2.6,7.3l-7-3.4c-5.4-2.6-11.1-4.6-16.9-5.9l-7.7-1.7L560.2,255.6z M370.9,190.7l-3.4-9.3h35.6l1.7,4.6
		l25.3,69.7l2.7,7.4l-7.7,1.7c-5.9,1.3-11.6,3.3-16.9,5.9l-6.9,3.4l-2.6-7.3L370.9,190.7z M388,310.8c0-21,21.8-34.8,42.1-38.7
		c4.5-0.9,9-1.3,13.4-1.3c22.7,0,40.1,11.1,47.8,30.4c0.6,1.6,2.2,2.6,3.9,2.6c1.7,0,3.2-1,3.9-2.6c7.7-19.3,25.2-30.4,47.8-30.4
		c4.4,0,8.9,0.4,13.4,1.3c20.2,3.9,42.1,17.7,42.1,38.7c0.1,23.6-10.3,45.9-28.5,61l-1.9,1.6H418.5l-1.9-1.6
		C398.4,356.6,388,334.4,388,310.8z M568.9,381.7v36.2H421.4v-36.2H568.9z M665.8,813.3l-1.3,5.3H325.8l-1.3-5.4
		c-3.6-15.2-4.6-30.7-3-46.2c2.8-118.4,35.9-235.1,95.7-337.4l2-3.5h36.4l-3.5,9.4C436.7,477,399.8,579,390.9,632.9
		c-0.4,2.3,1.2,4.4,3.4,4.8h0.1c0.2,0,0.4,0.1,0.6,0.1c2,0,3.8-1.5,4.1-3.5c8.6-51.5,43.7-149.6,63.8-203.5l1.7-4.5H491v285.3
		c0,2.3,1.9,4.2,4.2,4.2c2.3,0,4.2-1.9,4.2-4.2V426.3h26.3l1.7,4.5c12.6,33.4,54.4,146.7,63.9,203.5c0.3,2,2.1,3.5,4.1,3.5
		c0.2,0,0.4,0,0.6-0.1h0.1c2.3-0.4,3.8-2.5,3.4-4.8c-9-53.9-45.9-155.9-61.3-197.3l-3.5-9.4h36.4l2,3.5
		c59.9,102.4,93,219.2,95.7,337.8C670.3,782.9,669.3,798.3,665.8,813.3z"/>
</g>
</svg>
