<?xml version="1.0" encoding="utf-8"?>
<!-- Generator: Adobe Illustrator 22.0.1, SVG Export Plug-In . SVG Version: 6.00 Build 0)  -->
<svg version="1.1" id="Layer_1" xmlns="http://www.w3.org/2000/svg" xmlns:xlink="http://www.w3.org/1999/xlink" x="0px" y="0px"
	 viewBox="0 0 1000 1000" style="enable-background:new 0 0 1000 1000;" xml:space="preserve">
<style type="text/css">
	.st0{fill:#B7B7B7;}
</style>
<g>
	<g>
		<path class="st0" d="M818.8,745.4c-0.9-0.9-2.2-1.5-3.5-1.5h-8.5v-26.5c0-51.3-41.3-99.6-91.9-107.5l-107.5-16.9
			c-46.1-7.2-83.6-51.1-83.6-97.7V178c0-2.7-2.2-5-5-5H196.5c-2.7,0-5,2.2-5,5v61.2h-13.3c-2.7,0-5,2.2-5,5v64.5c0,2.7,2.2,5,5,5
			h13.3v400.4l-5.3,0.4c-2.6,0.2-4.6,2.3-4.6,4.9v71.9c0,19.8,16.1,35.9,35.9,35.9c10.2,0,19.9-4.4,26.7-12l4.2-4.7l4.2,4.7
			c6.8,7.6,16.6,12,26.7,12c10.2,0,19.9-4.4,26.7-12l4.2-4.7l4.2,4.7c6.8,7.6,16.6,12,26.7,12c19.8,0,35.9-16.1,35.9-35.9v-23.6
			l6.9,1.5l113,25.2l3.5,0.8l0.8,3.6c3.5,16.4,18.3,28.4,35.1,28.4c10.2,0,19.9-4.4,26.7-12l4.2-4.7l4.2,4.7
			c6.8,7.6,16.6,12,26.7,12c10.2,0,19.9-4.4,26.7-12l4.2-4.7l4.2,4.7c6.8,7.6,16.6,12,26.7,12c10.2,0,19.9-4.4,26.7-12l4.2-4.7
			l4.2,4.7c6.8,7.6,16.6,12,26.7,12c10.2,0,19.9-4.4,26.7-12l4.2-4.7l4.2,4.7c6.8,7.6,16.6,12,26.7,12c19.8,0,35.9-16.1,35.9-35.9
			v-42.1C820.2,747.6,819.7,746.4,818.8,745.4z M376.2,182.9h137.6v312.4c0,51.3,41.3,99.6,92,107.5l107.4,16.9
			c46.1,7.2,83.6,51.1,83.6,97.7V744H506.3l-0.6-0.1l-132.2-29.5c-0.4-0.1-0.7-0.1-1.1-0.1H201.5V500.3h84.9
			c49.6,0,89.9-40.3,89.9-89.9V351c0-2.7-2.2-5-5-5c-2.7,0-5,2.2-5,5v59.4c0,44.1-35.9,80-80,80h-84.9V313.5h28.4v9.2
			c0,2.7,2.2,5,5,5s5-2.2,5-5v-9.2h174c2.7,0,5-2.2,5-5v-64.5c0-2.7-2.2-5-5-5h-37.5V182.9z M239.8,303.6v-54.6h169v54.6H239.8z
			 M201.5,182.9h164.9v56.2H239.8v-9.2c0-2.7-2.2-5-5-5s-5,2.2-5,5v9.2h-28.4V182.9z M183.2,303.6v-54.6h46.7v54.6H183.2z
			 M810.3,796.7h-0.6c-2.6,11.6-13,20.3-25.4,20.3c-14.3,0-26-11.7-26-26c0-2.7-2.2-5-5-5s-5,2.2-5,5c0,14.3-11.7,26-26,26
			c-14.3,0-26-11.7-26-26c0-2.7-2.2-5-5-5c-2.7,0-5,2.2-5,5c0,14.3-11.7,26-26,26c-14.3,0-26-11.7-26-26c0-2.7-2.2-5-5-5
			c-2.7,0-5,2.2-5,5c0,14.3-11.7,26-26,26c-14.3,0-26-11.7-26-26c0-2.7-2.2-5-5-5s-5,2.2-5,5c0,14.3-11.7,26-26,26
			c-14.3,0-26-11.7-26-26c0-2.3-1.6-4.3-3.9-4.8l-133.3-29.8c-0.4-0.1-0.7-0.1-1.1-0.1c-1.1,0-2.2,0.4-3.1,1.1
			c-1.2,0.9-1.9,2.3-1.9,3.9v29.8c0,14.3-11.7,26-26,26s-26-11.7-26-26c0-2.7-2.2-5-5-5c-2.7,0-5,2.2-5,5c0,14.3-11.7,26-26,26
			s-26-11.7-26-26c0-2.7-2.2-5-5-5c-2.7,0-5,2.2-5,5c0,14.3-11.7,26-26,26s-26-11.7-26-26v-67h180.2l0.6,0.1l132.2,29.5
			c0.4,0.1,0.7,0.1,1.1,0.1h304.6V796.7z"/>
	</g>
</g>
</svg>
