<?xml version="1.0" encoding="utf-8"?>
<!-- Generator: Adobe Illustrator 22.0.1, SVG Export Plug-In . SVG Version: 6.00 Build 0)  -->
<svg version="1.1" id="Layer_1" xmlns="http://www.w3.org/2000/svg" xmlns:xlink="http://www.w3.org/1999/xlink" x="0px" y="0px"
	 viewBox="0 0 1000 1000" style="enable-background:new 0 0 1000 1000;" xml:space="preserve">
<style type="text/css">
	.st0{fill:#B7B7B7;}
</style>
<g>
	<g>
		<path class="st0" d="M724,739.4c-31.2-99.2-29.8-177.8-23.1-226.3c7.3-52.8,22.1-82.1,22.7-83.4l1.6-3.1l-2-2.8
			c-62.7-87.8-33.9-199.8-33.6-200.9l1.3-4.9l-107-40.1H421.5l-107,40.1l1.3,4.9c0.3,1.1,29.4,112.8-33.6,201l-2,2.8l1.6,3
			c0.6,1.1,59.8,118.5-0.4,309.7l-1.3,4.1L415.3,827l83-51.3l4.4-2.7l4.4,2.7l83.2,51.3l135.1-83.4L724,739.4z M577.5,189.1
			l-0.5,8.8c-3.4,56-26.2,109.9-67.9,160.2l-6.4,7.7l-6.4-7.7c-41.7-50.1-64.5-104-67.8-160.2l-0.5-8.8H577.5z M480.6,773.6
			l-61,37.7l-4.4,2.7l-4.4-2.7L298.7,742l-5.4-3.4l1.8-6.1c29-97.5,26.9-174.8,20.2-222.5c-5.6-39.3-15.2-65.9-20.4-78.3l-1.7-4.1
			l2.5-3.7c21.2-32.1,33.8-69.8,37.4-112.1c3-35.4-1.2-65.3-4-80l-1.3-6.9l6.5-2.5l72.2-27.1l10.4-3.9l0.8,11.1
			c4.3,58.3,28.8,114,72.7,165.6l4.9,5.7l-5.2,5.4c-9.4,9.8-19.6,19.4-30.1,28.5l-1.9,1.7v336l22.6,13.9l11.5,7.1L480.6,773.6z
			 M706.7,742l-112.2,69.3l-4.4,2.7l-4.4-2.7L473,741.8l-3.9-2.4V414.7l2.8-2.5c30.6-27.1,55.7-56.3,74.6-87
			c24.2-39.2,38.1-80.4,41.3-122.6l0.8-11l10.4,3.9l72.2,27.1l6.5,2.5l-1.3,6.9c-2.8,14.7-7,44.6-4,80c3.6,42.3,16.2,80,37.4,112.1
			l2.5,3.7l-1.7,4.1c-5.2,12.4-14.8,39-20.4,78.3c-6.8,47.7-8.8,125,20.2,222.5l1.8,6.1L706.7,742z"/>
	</g>
	<g>
		<path class="st0" d="M534.5,462.9c0,3.7-3,6.6-6.6,6.6s-6.6-3-6.6-6.6s3-6.6,6.6-6.6c1.8,0,3.4,0.7,4.7,2
			C533.8,459.5,534.5,461.2,534.5,462.9z"/>
	</g>
	<g>
		<path class="st0" d="M534.5,552.8c0,3.7-3,6.6-6.6,6.6s-6.6-3-6.6-6.6c0-3.7,3-6.6,6.6-6.6c1.8,0,3.4,0.7,4.7,1.9
			C533.8,549.4,534.5,551,534.5,552.8z"/>
	</g>
	<g>
		<path class="st0" d="M534.5,642.7c0,3.7-3,6.6-6.6,6.6s-6.6-3-6.6-6.6c0-3.7,3-6.6,6.6-6.6c1.8,0,3.4,0.7,4.7,1.9
			C533.8,639.3,534.5,640.9,534.5,642.7z"/>
	</g>
	<g>
		<rect x="587.5" y="457.4" class="st0" width="63.2" height="11.1"/>
	</g>
</g>
</svg>
