<?xml version="1.0" encoding="utf-8"?>
<!-- Generator: Adobe Illustrator 22.0.1, SVG Export Plug-In . SVG Version: 6.00 Build 0)  -->
<svg version="1.1" id="Layer_1" xmlns="http://www.w3.org/2000/svg" xmlns:xlink="http://www.w3.org/1999/xlink" x="0px" y="0px"
	 viewBox="0 0 1000 1000" style="enable-background:new 0 0 1000 1000;" xml:space="preserve">
<style type="text/css">
	.st0{fill:#B7B7B7;}
</style>
<g>
	<g>
		<g>
			<path class="st0" d="M624.4,366.2h-74c-2.7,0-4.8,2.2-4.8,4.8v65.2c0,1.9,1.1,3.6,2.8,4.4l37,17.2c0.6,0.3,1.3,0.5,2,0.5
				c0.7,0,1.4-0.2,2.1-0.5l2.8-1.3l34.2-15.9c1.7-0.8,2.8-2.5,2.8-4.4v-65.2C629.2,368.4,627,366.2,624.4,366.2z M619.5,433.2
				l-1.9,0.9l-28.9,13.4l-1.4,0.6l-1.4-0.6L557,434.1l-1.9-0.9v-57.3h64.3V433.2z"/>
		</g>
		<g>
			<path class="st0" d="M790.9,655.5c-1.6-31.2-43.8-198.1-64.1-278.4c-6.1-24.1-10.5-41.5-11.8-47.2c-5.2-22.9-13.6-39.8-26.4-52.9
				c-1.7-1.4-34.1-27.3-110-59.6l-1-0.4l-0.5-0.9l-19.4-31.8c-0.9-1.4-2.5-2.3-4.2-2.3h-0.1l-3.3,0.1V182h-94.9v0.1l-3.3-0.1h-0.1
				c-1.7,0-3.2,0.9-4.1,2.3l-19.4,31.8l-0.5,0.9l-0.9,0.4c-78.8,33.8-108.5,58.3-110,59.5c-13.5,13.9-20,26.8-26.5,53
				c-0.8,3.3-2.7,10.7-5.3,21c-17,66.7-68.7,269.5-70.5,304.5c-3,57,4.3,108.7,5.2,114.4v0.1l0,0.1l3.3,35.7
				c0.2,2.5,2.3,4.4,4.8,4.4h51.8c2.3,0,4.2-1.6,4.7-3.8l7.9-34.8l0.1-0.4l0.2-0.4c1.6-2.9,5.7-10.8,10.5-22.3l6.4-15.6l-0.2,16.9
				l-0.3,23.8c0,1.8,0.4,8.3,7.7,16.2c15.9,17,61,37.3,185.9,37.3s170.1-20.3,185.9-37.3c7.3-7.9,7.7-14.4,7.7-16.1l-0.3-23.9
				l-0.2-16.9l6.4,15.6c4.7,11.5,8.9,19.4,10.5,22.3l0.2,0.4l0.1,0.4l7.9,34.8c0.5,2.2,2.4,3.8,4.7,3.8h51.8c2.5,0,4.6-1.9,4.8-4.4
				l3.3-35.7v-0.1l0-0.1C786,767.6,794,713.8,790.9,655.5z M553.2,205.7l2.3-6.2l3.5,5.7l9.6,15.8l0.6,1l-0.2,1.2
				c-4.5,28.6-24,52.2-35.2,63.7l-2.6,2.6l-2.3-2.9l-17.1-21.6l-2.1-2.6l2.7-2C535.6,243.3,547.4,221.2,553.2,205.7z M436.7,220.9
				l9.6-15.8l3.5-5.7l2.3,6.2c5.8,15.5,17.6,37.6,40.7,54.6l2.7,2l-2.1,2.6l-17.1,21.6l-2.3,2.9l-2.6-2.6
				c-11.2-11.5-30.7-35-35.2-63.7l-0.2-1.2L436.7,220.9z M280.9,778.2l-4.5,19.7l-0.6,2.5h-43.5l-0.3-2.9l-1.8-19.7l-0.3-3.5h51.9
				L280.9,778.2z M310,687.6v0.1l0,0.1c-4.8,34.2-18.5,63.8-24.1,74.9l-0.9,1.8h-56.2l-0.4-2.8c-2.1-16.6-6.6-60.1-4.2-105.7
				c1.6-30.4,41.9-189.8,63.5-275.4c6.3-24.8,10.8-42.8,12.1-48.5c4-17.5,9.6-30.6,17.6-41.2l3.3-4.4l2.2,5
				c2.9,6.7,4.5,15.6,4.6,25.9v101.9L310,687.6z M497.8,817.3l-3.3,0c-87.8-0.6-130.8-12-151.4-21.4c-23.4-10.7-24.5-22.1-24.5-22.2
				l0.9-85.2v-0.1l0-0.1l17.6-268.6c0-3.3,0-99.8,0-102.1v-0.1c0-0.2,0.5-23-8.1-35l-2-2.8l2.9-1.8c41.8-25.9,79.3-42.3,93.5-48.5
				l3.6-1.6l0.9,3.8c9.5,40.1,43.1,68.3,43.4,68.6c1.2,1,2.3,1.5,3.2,1.5c1.2,0,2.5-0.7,3.7-2.2l13.6-17.1l5.8-7.3V817.3z
				 M502.7,255.3l-1.9-1.3c-26.2-18.3-37.4-44.3-41.7-58.2l-1.3-4.2h89.8l-1.3,4.2c-4.3,13.8-15.4,39.8-41.8,58.2L502.7,255.3z
				 M686.6,773.9l0,0.2c-0.3,1.9-2.6,11.8-24.5,21.8c-20.6,9.4-63.6,20.7-151.4,21.4l-3.2,0V275l5.8,7.3l13.6,17.2
				c1.1,1.3,2.3,2,3.8,2c1.1,0,2.2-0.4,3-1.2c0.1-0.1,0.2-0.2,0.5-0.5c8-7.3,34.9-33.6,43.1-68.3l0.9-3.7l3.5,1.4
				c34,13.9,88.7,44.4,93.9,48.8l2.2,1.8l-1.5,2.4c-6.9,11.2-8.1,26.7-8.2,35c0,1,0,99.1,0,102.4l17.6,268.6l0,0.1v0.1l0.9,85.2
				V773.9z M775.2,777.8l-1.8,19.7l-0.3,2.9h-43.5l-0.6-2.5l-4.5-19.7l-0.9-3.9h51.9L775.2,777.8z M777,761.7l-0.3,2.8h-56.2
				l-0.9-1.8c-5.6-11.1-19.3-40.7-24.1-74.9l0-0.1v-0.1l-17.6-268.4V317.3c0.1-10.2,1.7-19.2,4.6-25.8l2.2-5.1l3.3,4.4
				c8.1,10.6,13.7,23.7,17.6,41.2c1.3,5.8,5.8,23.7,12.1,48.5c21.7,85.6,61.9,245,63.5,275.4C783.6,701.5,779.1,745.1,777,761.7z"/>
		</g>
	</g>
</g>
</svg>
